<svg xmlns="http://www.w3.org/2000/svg" viewBox="0 0 262 192" xml:space="preserve"><path fill="#222" d="M170 193H1V1h262v192h-93M57.27 106.202s.33-.22 1.077-.069c2.486 1.928 1.984 3.619-.088 5.649-2.571 2.519-4.83 5.355-7.225 8.054l1.174 1.097c5.925-5.677 11.85-11.354 18.498-16.885 2.24 3.031 4.832 4.292 8.666 1.486-1.577-1.26-3.031-2.275-4.272-3.506-.341-.339-.045-1.32.684-2.224 2.161-3.81-.094-6.303-2.389-9.145-2.382 3.256-1.92 5.834.012 8.574-1.127.949-2.253 1.898-4.049 3.026l-4.562 3.369c-.97-1.33-1.784-2.443-1.965-3.824 7.53-9.664 4.795-18.819-1.12-27.501-6.711-.921-9.832 3.292-12.551 8.119 5.69 3.715 6.147 4.525 1.669 9.283-6.461 6.863-13.527 13.158-20.335 19.695-.96.922-1.922 1.84-2.883 2.76 4.662-.003 9.17-.179 12.618-2.182 3.475-2.019 6.7-3.37 10.663-3.456 1.386-.03 2.753-.945 4.927-1.49.418-.3.836-.601 1.45-.83m137.624-11.26c.03 3.357.061 6.714-.235 10.376 0 0-.078.44-.743.457-.301.128-.612.237-.899.392-.102.055-.145.219-.216.333 2.313.272 4.625.543 6.206.73 0-3.977.12-7.376-.044-10.761a14.638 14.638 0 0 0-1.674-6.14l-5.876 2.232c1.567.664 2.514 1.066 3.481 2.38m-21.22-9.14c.097 5.071.193 10.143.115 15.923-.268 1.38-.536 2.758-1.356 4.104l-1.046 1.024c.552.097 1.104.193 2.323.542.707.037 1.415.075 2.798.336 1.1-.172 2.2-.488 3.298-.48 1.432.01 2.956.672 4.278.362 4.76-1.114 7.143-7.064 5.238-12.588-1.739-5.042-4.944-6.122-10.477-3.602-.535.244-1.24.117-1.836-.791v-9.016l-2.993.862-3.688 1.065c1.568.713 2.287 1.04 3.346 2.258m34.584 4.338-5.196 2.263c5.237 4.369 1.659 9.82 2.785 14.748l4.218-.22c0-3.394 0-7.09.519-11.176 1.152-.557 2.274-1.19 3.465-1.646 1.069-.41 2.306-.465 3.26-1.03.242-.144-.084-2.205-.54-2.382-1.086-.424-2.573-.645-3.589-.216-1.25.529-2.186 1.801-3.338 2.102-.081-.203-.163-.405-.091-1.12-.263-.387-.526-.775-1.493-1.323m26.74 13.916c.006-6.458-.07-12.917.062-19.373.05-2.4-.495-3.496-3.753-2.53-1.047.35-2.093.702-3.362 1.128 3.897 2.727 4.184 6.254.58 7.978a97.943 97.943 0 0 1-3.128-.379c-.872.02-1.925-.272-2.586.111-4.004 2.32-5.352 8.768-2.887 13.215 2.142 3.866 5.56 4.46 11.154 2.623l5.736.519.029-1.005c-.643-.451-1.286-.903-1.845-2.287m-74.319-14.485c-.556.464-1.111.927-2.306 1.305-4.486.427-6.255 3.459-4.456 7.499.512 1.15.754 2.42.584 3.965.162 1.897.325 3.795.436 5.741 0 0 .059.04-.174.767-2.747 2.341-2.733 5.572.258 5.983 3.356.46 6.918-.158 10.333-.68 3.173-.485 4.817-3.073 3.705-5.76-.715-1.726-3.391-2.914-5.432-3.747-2.298-.938-4.87-1.205-6.905-2.354 1.13-.335 2.257-.937 3.393-.957 3.528-.061 6.624-1.09 6.801-4.982.164-3.597-1.739-6.266-6.237-6.78m-22.632 16.271c-.094-2.98-.568-6.019-.12-8.915.22-1.435 2.138-2.608 3.288-3.899.942 1.207 2.564 2.345 2.693 3.634.328 3.255-.012 6.577-.108 9.872-.003.073-.282.138-.431.206l-.405-.085h5.35c0-3.663.106-7.144-.024-10.615-.212-5.67-2.943-7.344-8.128-5.216-.916.376-1.98.496-2.983.535-2.032.08-4.07.024-6.545.024 4.282 5.685 2.475 10.725 2.118 15.757 1.774-.227 3.531-.452 5.295-1.298m-44.917.138c2.665.671 5.335 1.9 7.995 1.879 3.674-.03 6.911-1.71 7.59-5.874.64-3.918-1.763-6.155-4.965-7.756-1.771-.885-3.793-1.499-5.212-2.778-.854-.771-1.245-2.702-.955-3.895.237-.972 1.774-2.224 2.772-2.26 1.184-.04 2.59.89 3.563 1.77.882.802 1.31 2.103 2.5 4.148.916-7.27.905-7.03-5.92-7.34-3.763-.172-6.173.995-7.15 4.54-.994 3.604.82 6.068 3.83 7.804 1.145.66 2.589.967 3.49 1.85 1.486 1.454 2.641 3.246 3.936 4.895-1.365 1-2.603 2.499-4.124 2.886-2.487.632-4.632-.026-4.648-3.408-.002-.57-1.193-1.135-2.54-2.326-.185 2.273-.298 3.662-.162 5.865m35.237-8.168c-1.22-5.465-3.912-8.006-8.573-7.846-4.347.15-7.14 2.36-8.06 6.693-1.218 5.74 1.697 10.364 7.007 11.178 5.325.816 8.979-2.676 9.626-10.025z"/><path fill="#055450" d="M55.02 107.066c-1.375.51-2.742 1.425-4.128 1.456-3.963.086-7.188 1.437-10.663 3.456-3.448 2.003-7.956 2.179-12.618 2.181.96-.92 1.923-1.837 2.883-2.759 6.808-6.537 13.874-12.832 20.335-19.695 4.478-4.758 4.022-5.568-1.67-9.283 2.72-4.827 5.84-9.04 12.553-8.12 5.914 8.683 8.649 17.838.49 27.746-2.205 1.422-3.783 2.6-5.635 3.86-.7.44-1.123.8-1.547 1.158z"/><path fill="#1C5F5B" d="M138.042 106.15c-1.76.536-3.517.76-5.29.988.356-5.032 2.163-10.072-2.119-15.757 2.475 0 4.513.056 6.545-.024 1.004-.04 2.067-.16 2.983-.535 5.185-2.128 7.916-.454 8.128 5.216.13 3.471.024 6.952.024 10.615h-5.35l.405.085c.15-.068.428-.133.43-.206.097-3.295.437-6.617.11-9.872-.13-1.289-1.752-2.427-2.694-3.634-1.15 1.291-3.067 2.464-3.289 3.899-.447 2.896.027 5.935.117 9.226z"/><path fill="#0A534F" d="M93.005 105.57c-.012-1.795.101-3.184.286-5.457 1.347 1.191 2.538 1.756 2.54 2.326.016 3.382 2.16 4.04 4.648 3.408 1.521-.387 2.759-1.886 4.124-2.886-1.295-1.65-2.45-3.441-3.936-4.895-.901-.883-2.345-1.19-3.49-1.85-3.01-1.736-4.824-4.2-3.83-7.804.977-3.545 3.387-4.712 7.15-4.54 6.825.31 6.836.07 5.92 7.34-1.19-2.045-1.618-3.346-2.5-4.147-.972-.882-2.379-1.812-3.563-1.77-.998.035-2.535 1.287-2.772 2.259-.29 1.193.1 3.124.955 3.895 1.42 1.28 3.44 1.893 5.212 2.778 3.202 1.6 5.605 3.838 4.965 7.756-.679 4.164-3.916 5.843-7.59 5.874-2.66.022-5.33-1.208-8.12-2.287z"/><path fill="#0F5551" d="M128.4 98.19c-.681 6.969-4.335 10.461-9.66 9.645-5.31-.814-8.225-5.438-7.007-11.178.92-4.333 3.713-6.544 8.06-6.693 4.661-.16 7.354 2.38 8.607 8.226m-11.417-4.572c-.203 3.094-.726 6.218-.44 9.266.104 1.125 2.077 2.824 3.266 2.883 1.138.057 3.121-1.494 3.399-2.657.598-2.505.834-5.318.309-7.813-.684-3.246-2.721-5.073-6.534-1.679z"/><path fill="#195C58" d="M176.978 91.584c.626-.045 1.33.082 1.866-.162 5.533-2.52 8.738-1.44 10.477 3.602 1.905 5.524-.478 11.474-5.238 12.588-1.322.31-2.846-.352-4.278-.362-1.098-.008-2.199.308-3.494.044.454-1.109 1.104-1.78 2.174-2.399 2.364-.667 5.757-1.098 5.971-2.165.57-2.84.096-6.053-.743-8.886-.185-.626-3.593-.298-5.62-.67a19.205 19.205 0 0 0-1.115-1.59z"/><path fill="#054D48" d="M154.988 108.03c-.163-1.897-.326-3.795-.04-5.786.751.15 1.054.392 1.356.634 2.453.56 5.024.826 7.322 1.764 2.04.833 4.717 2.02 5.432 3.748 1.112 2.686-.532 5.274-3.705 5.76-3.415.521-6.977 1.14-10.333.679-2.99-.41-3.005-3.642-.193-5.882 1.092 4.858 5.411 6.652 9.482 3.87.789-.54 1.62-1.924 1.45-2.706-.174-.802-1.504-1.82-2.41-1.909-2.766-.273-5.571-.144-8.361-.171z"/><path fill="#145753" d="M156.513 102.583c-.511.053-.814-.19-1.297-.503-.546-1.287-.788-2.557-1.3-3.707-1.8-4.04-.03-7.072 4.759-7.084-.317 1.515-1.646 2.813-1.406 3.674.49 1.764 1.824 3.294 2.81 4.92 1.002-1.569 2.66-3.075 2.82-4.726.158-1.633-1.197-3.412-1.888-5.128 4.165.054 6.068 2.723 5.904 6.32-.177 3.892-3.273 4.921-6.8 4.982-1.137.02-2.263.622-3.602 1.252z"/><path fill="#225D59" d="M56.842 105.826c1.577-1.178 3.155-2.356 5.045-3.645 1.125 1.004 1.939 2.118 2.909 3.447 1.72-1.27 3.141-2.32 4.893-3.155.318.62.305 1.024.293 1.429l-17.774 17.03-1.174-1.096c2.394-2.699 4.654-5.535 7.225-8.054 2.072-2.03 2.574-3.721-.373-5.644-.46.005-.703-.018-.79-.089-.088-.07-.254-.223-.254-.223z"/><path fill="#EEF1" d="M226.057 90.991c.822.089 1.645.177 2.734.91.896 4.413 1.525 8.182 1.82 12.163-4.782 1.774-7.354.61-7.277-3.788.055-3.11 1.756-6.191 2.723-9.285z"/><path fill="#095753" d="M230.944 103.852c-.628-3.77-1.257-7.538-1.944-11.72 3.128-2.6 2.84-6.126-1.056-8.853 1.269-.426 2.315-.777 3.981-.827 1.102 2.08 1.87 3.834 2.014 5.638.451 5.622.667 11.263.974 16.897l1.929 1.354-.029 1.005c-1.912-.173-3.824-.346-5.787-1.25a64.417 64.417 0 0 1-.082-2.244z"/><path fill="#0F5551" d="M230.61 104.064c.345.292.355.796.355 1.678-5.481 2.921-8.9 2.328-11.042-1.538-2.465-4.447-1.117-10.894 2.887-13.215.661-.383 1.714-.09 2.917-.054-.637 3.15-2.338 6.23-2.393 9.34-.077 4.4 2.495 5.563 7.276 3.789z"/><path fill="#055450" d="M209.596 91.973c.082.203.164.405.296 1.297.091 1.417.132 2.144.172 2.871v10.788l-4.218.22c-1.126-4.928 2.452-10.379-2.785-14.748 1.716-.747 3.456-1.505 5.543-1.944.563.717.777 1.117.992 1.516z"/><path fill="#05514D" d="M176.993 91.108c.322.92.659 1.362.808 2.337-.037 4.154.113 7.775.264 11.397-.65.672-1.3 1.343-2.092 2.34-.85.287-1.557.25-2.623-.234-.362-.66-.364-.873-.366-1.087.268-1.379.536-2.758 1.185-4.787.522-3.771.897-6.904.723-10.006-.116-2.076-1.012-4.109-1.558-6.16l-3.007-1.366c1.775-.513 2.731-.79 3.688-1.065l2.993-.862c0 3.175 0 6.095-.015 9.493z"/><path fill="#222" d="M154.962 108.055c2.816.003 5.621-.126 8.387.147.906.09 2.236 1.107 2.41 1.909.17.782-.661 2.166-1.45 2.705-4.07 2.783-8.39.99-9.366-4.232.052-.466-.007-.505.019-.529zm5.882-18.255c.858 1.945 2.213 3.724 2.054 5.357-.16 1.651-1.817 3.157-2.82 4.727-.985-1.627-2.318-3.157-2.81-4.921-.239-.861 1.09-2.159 1.726-3.631.573-.836 1.128-1.3 1.85-1.533z"/><path fill="#095753" d="M194.58 105.758s.078-.44.539-.875c.225-3.908-.01-7.38-.245-10.854l-3.462-1.468c2.42-.92 4.148-1.576 6.231-1.826.352 4.202.274 7.999.372 11.79.065 2.497-.702 3.841-3.435 3.233z"/><path fill="#222" d="M70.344 103.975c-.35-.478-.337-.883-.32-1.592 1.13-1.252 2.256-2.201 3.774-3.083.68.285.97.503 1.26.722-.003.686-.299 1.667.042 2.006 1.24 1.23 2.695 2.246 4.272 3.506-3.834 2.806-6.426 1.545-9.028-1.56z"/><path fill="#0A534F" d="M75.421 99.913c-.652-.11-.942-.328-1.36-.791-2.586-2.63-3.048-5.207-.666-8.463 2.295 2.842 4.55 5.335 2.026 9.254z"/><path fill="#195C58" d="M173.503 85.354c.377 1.605 1.273 3.638 1.389 5.714.174 3.102-.2 6.235-.636 9.651-.39-4.775-.486-9.847-.753-15.365z"/><path fill="#225D59" d="M210.323 95.947c-.3-.533-.34-1.26-.39-2.352 1.06-1.315 1.996-2.587 3.246-3.116 1.016-.429 2.503-.208 3.59.216.455.177.781 2.238.539 2.381-.954.566-2.191.622-3.26 1.031-1.191.456-2.313 1.09-3.725 1.84z"/><path fill="#034540" d="M194.247 105.767c3.066.599 3.833-.745 3.768-3.241-.098-3.792-.02-7.59-.021-11.836.335 1.625.867 3.691.968 5.779.164 3.385.044 6.784.044 10.76l-6.206-.729c.07-.114.114-.278.216-.333.287-.155.598-.264 1.231-.4z"/><path fill="#222" d="M234.955 104.52c-.349-5.167-.565-10.808-1.016-16.43-.145-1.804-.912-3.559-1.649-5.62 2.274-1.285 2.819-.189 2.77 2.211-.133 6.456-.057 12.915-.105 19.84z"/><path fill="#034540" d="M194.883 94.486c.226 3.016.461 6.489.4 10.244-.329-3.074-.36-6.431-.4-10.244z"/><path fill="#195C58" d="M172.708 105.845c.278.23.28.444.308.977-.526.223-1.078.127-1.63.03.349-.341.697-.682 1.322-1.007z"/><path fill="#225D59" d="M209.673 91.718c-.292-.144-.506-.544-.716-1.181.267.15.53.537.716 1.18zM55.42 107.05c.024-.343.448-.701 1.147-1.142a.44.44 0 0 1 .502.154c.06.084.003.068.003.068-.417.3-.835.601-1.653.92z"/><path fill="#055450" d="M57.171 106.166c-.099-.036-.041-.02-.014-.033.026-.013.27.01.356-.07.087-.082-.243.139-.342.103z"/><path fill="#222" d="M117.188 93.25c3.608-3.026 5.645-1.199 6.329 2.047.525 2.495.29 5.308-.309 7.813-.278 1.163-2.26 2.714-3.399 2.657-1.19-.06-3.162-1.758-3.267-2.883-.285-3.048.238-6.172.646-9.633zm61.297 11.645c-.57-3.675-.721-7.296-.58-11.19 2.215-.159 5.623-.487 5.808.139.839 2.833 1.312 6.045.743 8.886-.214 1.067-3.607 1.498-5.97 2.165z"/></svg>