<svg version="1.1" id="Layer_1" xmlns="http://www.w3.org/2000/svg" xmlns:xlink="http://www.w3.org/1999/xlink" x="0px" y="0px"
	 width="100%" viewBox="0 0 262 192" enable-background="new 0 0 262 192" xml:space="preserve">
<path fill="#222" opacity="1.000000" stroke="none" 
	d="
M170.000000,193.000000 
	C113.333344,193.000000 57.166687,193.000000 1.000023,193.000000 
	C1.000015,129.000015 1.000015,65.000046 1.000008,1.000048 
	C88.333290,1.000032 175.666580,1.000032 262.999908,1.000016 
	C262.999939,64.999947 262.999939,128.999893 262.999969,192.999924 
	C232.166672,193.000000 201.333328,193.000000 170.000000,193.000000 
M57.269661,106.201790 
	C57.269661,106.201790 57.599876,105.981102 58.346676,106.133194 
	C60.832680,108.060577 60.330711,109.752007 58.258598,111.782005 
	C55.687672,114.300705 53.428059,117.137177 51.033974,119.836388 
	C51.425343,120.201881 51.816708,120.567383 52.208076,120.932877 
	C58.132618,115.255859 64.057159,109.578835 70.706383,104.047844 
	C72.945557,107.078995 75.537849,108.339951 79.372192,105.534180 
	C77.794861,104.274429 76.340919,103.258514 75.100243,102.027626 
	C74.758972,101.689056 75.054932,100.708199 75.783585,99.803757 
	C77.945229,95.993767 75.689606,93.501434 73.395493,90.658989 
	C71.012703,93.915291 71.475037,96.492516 73.406792,99.233047 
	C72.280441,100.181915 71.154091,101.130775 69.358192,102.259033 
	C67.936966,103.308380 66.515739,104.357719 64.795677,105.627701 
	C63.825661,104.298775 63.012482,103.184715 62.830612,101.803551 
	C70.360962,92.139587 67.625511,82.984970 61.711571,74.302666 
	C54.999805,73.381927 51.878952,77.595436 49.159775,82.421700 
	C54.850510,86.137032 55.307404,86.947044 50.829010,91.704552 
	C44.367832,98.568428 37.302200,104.863342 30.493942,111.400452 
	C29.534458,112.321724 28.571819,113.239708 27.610643,114.159218 
	C32.272892,114.156647 36.781406,113.980988 40.228512,111.978340 
	C43.703693,109.959381 46.929081,108.608437 50.891720,108.521500 
	C52.277836,108.491096 53.644566,107.576950 55.818569,107.032249 
	C56.236542,106.731377 56.654510,106.430504 57.269661,106.201790 
M194.893234,94.941940 
	C194.923813,98.298813 194.954376,101.655693 194.658340,105.317924 
	C194.658340,105.317924 194.579544,105.758041 193.914993,105.775421 
	C193.613693,105.902733 193.302841,106.012329 193.016190,106.166832 
	C192.914062,106.221878 192.870667,106.385864 192.800461,106.500130 
	C195.112503,106.771812 197.424545,107.043495 199.005997,107.229332 
	C199.005997,103.252968 199.125504,99.854080 198.961929,96.468872 
	C198.861053,94.381371 198.328506,92.314728 197.287827,90.328346 
	C195.559753,90.984871 193.831680,91.641396 191.412018,92.560654 
	C192.978775,93.225357 193.926147,93.627289 194.893234,94.941940 
M173.673065,85.800385 
	C173.769516,90.872200 173.865982,95.944008 173.787735,101.724388 
	C173.519882,103.103287 173.252029,104.482193 172.431747,105.828262 
	C172.083237,106.169655 171.734726,106.511047 171.386215,106.852440 
	C171.938080,106.948814 172.489960,107.045189 173.709412,107.393562 
	C174.416489,107.431320 175.123550,107.469070 176.507172,107.729950 
	C177.606445,107.557953 178.706741,107.241905 179.804718,107.249763 
	C181.237350,107.260010 182.760651,107.921898 184.083115,107.612282 
	C188.842941,106.497879 191.225830,100.547836 189.320633,95.023689 
	C187.582001,89.982445 184.377380,88.901733 178.844498,91.422295 
	C178.308899,91.666290 177.604263,91.539284 177.007507,90.630745 
	C177.007507,87.710411 177.007507,84.790077 177.007507,81.614677 
	C175.855835,81.946335 174.935349,82.211037 174.015106,82.476517 
	C173.058319,82.752556 172.101730,83.029343 170.326538,83.542343 
	C171.895462,84.254677 172.614487,84.581139 173.673065,85.800385 
M208.256546,90.138283 
	C206.516525,90.895981 204.776505,91.653687 203.061371,92.400551 
	C208.297806,96.769981 204.719925,102.220901 205.846268,107.149300 
	C207.453461,107.065514 209.314743,106.968491 210.064240,106.929413 
	C210.064240,103.534767 210.064240,99.838058 210.582687,95.752533 
	C211.734695,95.196335 212.856995,94.562523 214.047516,94.107002 
	C215.116699,93.697914 216.353745,93.641533 217.307526,93.076424 
	C217.550430,92.932503 217.223709,90.872467 216.768112,90.694870 
	C215.681625,90.271339 214.194824,90.050087 213.179276,90.479416 
	C211.929138,91.007927 210.993347,92.280014 209.841034,92.580902 
	C209.759506,92.378433 209.677963,92.175964 209.749954,91.461685 
	C209.487152,91.073959 209.224365,90.686241 208.256546,90.138283 
M234.996857,104.053772 
	C235.003403,97.596001 234.927094,91.136520 235.059494,84.681335 
	C235.108719,82.281189 234.564041,81.184563 231.305954,82.150520 
	C230.259262,82.501755 229.212555,82.852989 227.943619,83.278801 
	C231.840729,86.005966 232.127792,89.532616 228.524384,91.256607 
	C227.701859,91.168159 226.879349,91.079704 225.396469,90.878197 
	C224.524384,90.898094 223.471329,90.605728 222.809845,90.989044 
	C218.805588,93.309517 217.457764,99.756851 219.922562,104.203773 
	C222.065247,108.069557 225.483551,108.663124 231.077454,106.826859 
	C232.989288,106.999908 234.901138,107.172966 236.812973,107.346016 
	C236.822617,107.011131 236.832260,106.676254 236.841904,106.341370 
	C236.198959,105.889755 235.556000,105.438133 234.996857,104.053772 
M160.677979,89.569130 
	C160.122498,90.032532 159.567001,90.495934 158.372131,90.874214 
	C153.885529,91.300980 152.116608,94.332542 153.916031,98.372528 
	C154.428238,99.522522 154.669937,100.792999 154.499512,102.337921 
	C154.662201,104.235481 154.824890,106.133049 154.936188,108.079498 
	C154.936188,108.079498 154.994934,108.118179 154.762222,108.845566 
	C152.015350,111.187035 152.029343,114.418259 155.020493,114.828964 
	C158.375992,115.289696 161.937973,114.671036 165.353119,114.149063 
	C168.525528,113.664200 170.170151,111.075890 169.058258,108.389816 
	C168.343338,106.662758 165.666626,105.474915 163.625717,104.642075 
	C161.327988,103.704430 158.756683,103.437256 156.720810,102.288467 
	C157.851746,101.952888 158.978073,101.350998 160.114487,101.331253 
	C163.641800,101.269981 166.738144,100.240677 166.915237,96.349068 
	C167.078903,92.752357 165.176468,90.082512 160.677979,89.569130 
M138.045578,105.840149 
	C137.951736,102.860031 137.478027,99.821251 137.925354,96.924713 
	C138.146912,95.490089 140.063797,94.317291 141.213654,93.026031 
	C142.155975,94.232895 143.777542,95.371353 143.907303,96.660042 
	C144.235092,99.914803 143.894516,103.237244 143.798599,106.531891 
	C143.796494,106.604744 143.517441,106.669540 143.367569,106.738091 
	C143.530075,106.772285 143.692581,106.806473 142.963486,106.653069 
	C145.483612,106.653069 147.105118,106.653069 148.312805,106.653069 
	C148.312805,102.989540 148.418640,99.509377 148.288818,96.038040 
	C148.076767,90.368065 145.345901,88.693802 140.161438,90.821739 
	C139.245132,91.197838 138.181534,91.317894 137.178131,91.357399 
	C135.145798,91.437424 133.108093,91.381294 130.633316,91.381294 
	C134.914856,97.065849 133.107651,102.105614 132.751160,107.137527 
	C134.525330,106.910645 136.282257,106.685966 138.045578,105.840149 
M93.128944,105.978088 
	C95.794365,106.649368 98.464394,107.878601 101.124100,107.856667 
	C104.798141,107.826363 108.035149,106.146515 108.714447,101.982635 
	C109.353645,98.064674 106.951042,95.827919 103.749184,94.227325 
	C101.977509,93.341667 99.956131,92.728294 98.537445,91.448753 
	C97.682625,90.677757 97.291634,88.746971 97.582047,87.553978 
	C97.818672,86.581947 99.355637,85.329613 100.354271,85.294655 
	C101.538193,85.253220 102.944901,86.183067 103.916573,87.064911 
	C104.798820,87.865601 105.226967,89.166641 106.416504,91.212105 
	C107.333107,83.942223 107.322227,84.181519 100.497139,83.871162 
	C96.733597,83.700020 94.324455,84.867226 93.347160,88.411827 
	C92.353386,92.016174 94.166061,94.480354 97.176605,96.215836 
	C98.322098,96.876183 99.765724,97.182930 100.667404,98.065628 
	C102.153015,99.519981 103.308311,101.311745 104.602844,102.961281 
	C103.237968,103.960785 102.000145,105.459824 100.479431,105.846603 
	C97.991737,106.479340 95.847336,105.821228 95.831421,102.439453 
	C95.828735,101.869141 94.638153,101.304420 93.290680,100.113228 
	C93.106087,102.386345 92.993362,103.774521 93.128944,105.978088 
M128.366104,97.809990 
	C127.146507,92.344627 124.454391,89.803711 119.792915,89.963989 
	C115.445679,90.113472 112.653572,92.323967 111.733383,96.657433 
	C110.514618,102.397003 113.429947,107.021057 118.739594,107.834976 
	C124.065285,108.651344 127.718948,105.159019 128.366104,97.809990 
z"/>
<path fill="#055450" opacity="1.000000" stroke="none" 
	d="
M55.020149,107.066360 
	C53.644566,107.576950 52.277836,108.491096 50.891720,108.521500 
	C46.929081,108.608437 43.703693,109.959381 40.228512,111.978340 
	C36.781406,113.980988 32.272892,114.156647 27.610643,114.159218 
	C28.571819,113.239708 29.534458,112.321724 30.493942,111.400452 
	C37.302200,104.863342 44.367832,98.568428 50.829010,91.704552 
	C55.307404,86.947044 54.850510,86.137032 49.159775,82.421700 
	C51.878952,77.595436 54.999805,73.381927 61.711571,74.302666 
	C67.625511,82.984970 70.360962,92.139587 62.202553,102.047516 
	C59.996895,103.469704 58.419300,104.647919 56.566589,105.907875 
	C55.867706,106.348534 55.443928,106.707451 55.020149,107.066360 
z"/>
<path fill="#1C5F5B" opacity="1.000000" stroke="none" 
	d="
M138.042389,106.150719 
	C136.282257,106.685966 134.525330,106.910645 132.751160,107.137527 
	C133.107651,102.105614 134.914856,97.065849 130.633316,91.381294 
	C133.108093,91.381294 135.145798,91.437424 137.178131,91.357399 
	C138.181534,91.317894 139.245132,91.197838 140.161438,90.821739 
	C145.345901,88.693802 148.076767,90.368065 148.288818,96.038040 
	C148.418640,99.509377 148.312805,102.989540 148.312805,106.653069 
	C147.105118,106.653069 145.483612,106.653069 142.963486,106.653069 
	C143.692581,106.806473 143.530075,106.772285 143.367569,106.738091 
	C143.517441,106.669540 143.796494,106.604744 143.798599,106.531891 
	C143.894516,103.237244 144.235092,99.914803 143.907303,96.660042 
	C143.777542,95.371353 142.155975,94.232895 141.213654,93.026031 
	C140.063797,94.317291 138.146912,95.490089 137.925354,96.924713 
	C137.478027,99.821251 137.951736,102.860031 138.042389,106.150719 
z"/>
<path fill="#0A534F" opacity="1.000000" stroke="none" 
	d="
M93.004791,105.570389 
	C92.993362,103.774521 93.106087,102.386345 93.290680,100.113228 
	C94.638153,101.304420 95.828735,101.869141 95.831421,102.439453 
	C95.847336,105.821228 97.991737,106.479340 100.479431,105.846603 
	C102.000145,105.459824 103.237968,103.960785 104.602844,102.961281 
	C103.308311,101.311745 102.153015,99.519981 100.667404,98.065628 
	C99.765724,97.182930 98.322098,96.876183 97.176605,96.215836 
	C94.166061,94.480354 92.353386,92.016174 93.347160,88.411827 
	C94.324455,84.867226 96.733597,83.700020 100.497139,83.871162 
	C107.322227,84.181519 107.333107,83.942223 106.416504,91.212105 
	C105.226967,89.166641 104.798820,87.865601 103.916573,87.064911 
	C102.944901,86.183067 101.538193,85.253220 100.354271,85.294655 
	C99.355637,85.329613 97.818672,86.581947 97.582047,87.553978 
	C97.291634,88.746971 97.682625,90.677757 98.537445,91.448753 
	C99.956131,92.728294 101.977509,93.341667 103.749184,94.227325 
	C106.951042,95.827919 109.353645,98.064674 108.714447,101.982635 
	C108.035149,106.146515 104.798141,107.826363 101.124100,107.856667 
	C98.464394,107.878601 95.794365,106.649368 93.004791,105.570389 
z"/>
<path fill="#0F5551" opacity="1.000000" stroke="none" 
	d="
M128.399811,98.189545 
	C127.718948,105.159019 124.065285,108.651344 118.739594,107.834976 
	C113.429947,107.021057 110.514618,102.397003 111.733383,96.657433 
	C112.653572,92.323967 115.445679,90.113472 119.792915,89.963989 
	C124.454391,89.803711 127.146507,92.344627 128.399811,98.189545 
M116.983124,93.618019 
	C116.780411,96.711838 116.257088,99.835640 116.542229,102.883820 
	C116.647461,104.008789 118.619629,105.707664 119.809364,105.767326 
	C120.947388,105.824402 122.930176,104.272987 123.207962,103.110001 
	C123.806190,100.605408 124.042297,97.792053 123.516853,95.296623 
	C122.833488,92.051186 120.795631,90.224136 116.983124,93.618019 
z"/>
<path fill="#195C58" opacity="1.000000" stroke="none" 
	d="
M176.978104,91.584496 
	C177.604263,91.539284 178.308899,91.666290 178.844498,91.422295 
	C184.377380,88.901733 187.582001,89.982445 189.320633,95.023689 
	C191.225830,100.547836 188.842941,106.497879 184.083115,107.612282 
	C182.760651,107.921898 181.237350,107.260010 179.804718,107.249763 
	C178.706741,107.241905 177.606445,107.557953 176.311203,107.293640 
	C176.765030,106.185448 177.414810,105.513573 178.485184,104.895340 
	C180.849380,104.228043 184.242462,103.797371 184.456192,102.730019 
	C185.025055,99.889343 184.551971,96.677399 183.713333,93.843910 
	C183.528122,93.218102 180.120483,93.546036 178.092804,93.173950 
	C177.651978,92.470230 177.315048,92.027359 176.978104,91.584496 
z"/>
<path fill="#054D48" opacity="1.000000" stroke="none" 
	d="
M154.987579,108.030609 
	C154.824890,106.133049 154.662201,104.235481 154.948212,102.244492 
	C155.699387,102.393517 156.001877,102.635979 156.304367,102.878441 
	C158.756683,103.437256 161.327988,103.704430 163.625717,104.642075 
	C165.666626,105.474915 168.343338,106.662758 169.058258,108.389816 
	C170.170151,111.075890 168.525528,113.664200 165.353119,114.149063 
	C161.937973,114.671036 158.375992,115.289696 155.020493,114.828964 
	C152.029343,114.418259 152.015350,111.187035 154.826782,108.947311 
	C155.919159,113.805107 160.238068,115.598633 164.309052,112.816414 
	C165.097763,112.277397 165.928299,110.892807 165.758896,110.110672 
	C165.585266,109.309082 164.255188,108.291473 163.349060,108.202141 
	C160.583145,107.929466 157.777664,108.058121 154.987579,108.030609 
z"/>
<path fill="#145753" opacity="1.000000" stroke="none" 
	d="
M156.512589,102.583450 
	C156.001877,102.635979 155.699387,102.393517 155.216278,102.079651 
	C154.669937,100.792999 154.428238,99.522522 153.916031,98.372528 
	C152.116608,94.332542 153.885529,91.300980 158.674652,91.288994 
	C158.358154,92.803978 157.029037,94.101799 157.268723,94.963028 
	C157.759705,96.727303 159.092560,98.257286 160.078781,99.883728 
	C161.080551,98.314247 162.738785,96.808273 162.898499,95.157333 
	C163.056503,93.524124 161.701721,91.744560 161.010529,90.029190 
	C165.176468,90.082512 167.078903,92.752357 166.915237,96.349068 
	C166.738144,100.240677 163.641800,101.269981 160.114487,101.331253 
	C158.978073,101.350998 157.851746,101.952888 156.512589,102.583450 
z"/>
<path fill="#225D59" opacity="1.000000" stroke="none" 
	d="
M56.841702,105.826141 
	C58.419300,104.647919 59.996895,103.469704 61.886894,102.181076 
	C63.012482,103.184715 63.825661,104.298775 64.795677,105.627701 
	C66.515739,104.357719 67.936966,103.308380 69.688927,102.473183 
	C70.007011,103.092163 69.994362,103.496986 69.981705,103.901817 
	C64.057159,109.578835 58.132618,115.255859 52.208076,120.932877 
	C51.816708,120.567383 51.425343,120.201881 51.033974,119.836388 
	C53.428059,117.137177 55.687672,114.300705 58.258598,111.782005 
	C60.330711,109.752007 60.832680,108.060577 57.886490,106.138107 
	C57.426308,106.143013 57.183208,106.119926 57.095490,106.049202 
	C57.007774,105.978477 56.841702,105.826141 56.841702,105.826141 
z"/>
<path fill="#EEF1" opacity="1.000000" stroke="none" 
	d="
M226.056824,90.991257 
	C226.879349,91.079704 227.701859,91.168159 228.791077,91.900558 
	C229.686661,96.313629 230.315552,100.082756 230.610321,104.063736 
	C225.829224,105.837601 223.257294,104.674538 223.334274,100.275620 
	C223.388672,97.165901 225.090469,94.085014 226.056824,90.991257 
z"/>
<path fill="#095753" opacity="1.000000" stroke="none" 
	d="
M230.944443,103.851883 
	C230.315552,100.082756 229.686661,96.313629 229.000366,92.132843 
	C232.127792,89.532616 231.840729,86.005966 227.943619,83.278801 
	C229.212555,82.852989 230.259262,82.501755 231.925232,82.452240 
	C233.027008,84.531181 233.794266,86.285545 233.939102,88.089867 
	C234.390411,93.711922 234.606018,99.352890 234.913040,104.986526 
	C235.556000,105.438133 236.198959,105.889755 236.841904,106.341370 
	C236.832260,106.676254 236.822617,107.011131 236.812973,107.346016 
	C234.901138,107.172966 232.989288,106.999908 231.026245,106.095284 
	C230.964844,104.859764 230.954636,104.355827 230.944443,103.851883 
z"/>
<path fill="#0F5551" opacity="1.000000" stroke="none" 
	d="
M230.610321,104.063736 
	C230.954636,104.355827 230.964844,104.859764 230.965378,105.741646 
	C225.483551,108.663124 222.065247,108.069557 219.922562,104.203773 
	C217.457764,99.756851 218.805588,93.309517 222.809845,90.989044 
	C223.471329,90.605728 224.524384,90.898094 225.726654,90.934731 
	C225.090469,94.085014 223.388672,97.165901 223.334274,100.275620 
	C223.257294,104.674538 225.829224,105.837601 230.610321,104.063736 
z"/>
<path fill="#055450" opacity="1.000000" stroke="none" 
	d="
M209.596420,91.973495 
	C209.677963,92.175964 209.759506,92.378433 209.891739,93.270218 
	C209.983047,94.686806 210.023651,95.414078 210.064240,96.141350 
	C210.064240,99.838058 210.064240,103.534767 210.064240,106.929413 
	C209.314743,106.968491 207.453461,107.065514 205.846268,107.149300 
	C204.719925,102.220901 208.297806,96.769981 203.061371,92.400551 
	C204.776505,91.653687 206.516525,90.895981 208.604111,90.456551 
	C209.166595,91.174377 209.381500,91.573936 209.596420,91.973495 
z"/>
<path fill="#05514D" opacity="1.000000" stroke="none" 
	d="
M176.992798,91.107620 
	C177.315048,92.027359 177.651978,92.470230 177.801300,93.445068 
	C177.763992,97.598595 177.914291,101.220154 178.064606,104.841705 
	C177.414810,105.513573 176.765030,106.185448 175.972931,107.182068 
	C175.123550,107.469070 174.416489,107.431320 173.349518,106.947968 
	C172.987823,106.288620 172.985992,106.074860 172.984161,105.861099 
	C173.252029,104.482193 173.519882,103.103287 174.168976,101.073624 
	C174.691376,97.302940 175.065781,94.169952 174.891891,91.067696 
	C174.775528,88.991737 173.880234,86.959442 173.333511,84.907593 
	C172.614487,84.581139 171.895462,84.254677 170.326538,83.542343 
	C172.101730,83.029343 173.058319,82.752556 174.015106,82.476517 
	C174.935349,82.211037 175.855835,81.946335 177.007507,81.614677 
	C177.007507,84.790077 177.007507,87.710411 176.992798,91.107620 
z"/>
<path fill="#222" opacity="1.000000" stroke="none" 
	d="
M154.961884,108.055054 
	C157.777664,108.058121 160.583145,107.929466 163.349060,108.202141 
	C164.255188,108.291473 165.585266,109.309082 165.758896,110.110672 
	C165.928299,110.892807 165.097763,112.277397 164.309052,112.816414 
	C160.238068,115.598633 155.919159,113.805107 154.943146,108.583618 
	C154.994934,108.118179 154.936188,108.079498 154.961884,108.055054 
z"/>
<path fill="#222" opacity="1.000000" stroke="none" 
	d="
M160.844254,89.799164 
	C161.701721,91.744560 163.056503,93.524124 162.898499,95.157333 
	C162.738785,96.808273 161.080551,98.314247 160.078781,99.883728 
	C159.092560,98.257286 157.759705,96.727303 157.268723,94.963028 
	C157.029037,94.101799 158.358154,92.803978 158.994354,91.331558 
	C159.567001,90.495934 160.122498,90.032532 160.844254,89.799164 
z"/>
<path fill="#095753" opacity="1.000000" stroke="none" 
	d="
M194.579544,105.758041 
	C194.579544,105.758041 194.658340,105.317924 195.118774,104.882889 
	C195.343979,100.974976 195.108749,97.502090 194.873520,94.029221 
	C193.926147,93.627289 192.978775,93.225357 191.412018,92.560654 
	C193.831680,91.641396 195.559753,90.984871 197.642960,90.735092 
	C197.994858,94.936752 197.916626,98.733604 198.014984,102.525879 
	C198.079727,105.021896 197.313278,106.366013 194.579544,105.758041 
z"/>
<path fill="#222" opacity="1.000000" stroke="none" 
	d="
M70.344048,103.974831 
	C69.994362,103.496986 70.007011,103.092163 70.023697,102.383484 
	C71.154091,101.130775 72.280441,100.181915 73.797852,99.299644 
	C74.478767,99.584846 74.768631,99.803452 75.058487,100.022057 
	C75.054932,100.708199 74.758972,101.689056 75.100243,102.027626 
	C76.340919,103.258514 77.794861,104.274429 79.372192,105.534180 
	C75.537849,108.339951 72.945557,107.078995 70.344048,103.974831 
z"/>
<path fill="#0A534F" opacity="1.000000" stroke="none" 
	d="
M75.421036,99.912903 
	C74.768631,99.803452 74.478767,99.584846 74.061646,99.121658 
	C71.475037,96.492516 71.012703,93.915291 73.395493,90.658989 
	C75.689606,93.501434 77.945229,95.993767 75.421036,99.912903 
z"/>
<path fill="#195C58" opacity="1.000000" stroke="none" 
	d="
M173.503296,85.353989 
	C173.880234,86.959442 174.775528,88.991737 174.891891,91.067696 
	C175.065781,94.169952 174.691376,97.302940 174.256317,100.719345 
	C173.865982,95.944008 173.769516,90.872200 173.503296,85.353989 
z"/>
<path fill="#225D59" opacity="1.000000" stroke="none" 
	d="
M210.323456,95.946945 
	C210.023651,95.414078 209.983047,94.686806 209.932068,93.595131 
	C210.993347,92.280014 211.929138,91.007927 213.179276,90.479416 
	C214.194824,90.050087 215.681625,90.271339 216.768112,90.694870 
	C217.223709,90.872467 217.550430,92.932503 217.307526,93.076424 
	C216.353745,93.641533 215.116699,93.697914 214.047516,94.107002 
	C212.856995,94.562523 211.734695,95.196335 210.323456,95.946945 
z"/>
<path fill="#034540" opacity="1.000000" stroke="none" 
	d="
M194.247269,105.766731 
	C197.313278,106.366013 198.079727,105.021896 198.014984,102.525879 
	C197.916626,98.733604 197.994858,94.936752 197.993927,90.690277 
	C198.328506,92.314728 198.861053,94.381371 198.961929,96.468872 
	C199.125504,99.854080 199.005997,103.252968 199.005997,107.229332 
	C197.424545,107.043495 195.112503,106.771812 192.800446,106.500122 
	C192.870667,106.385864 192.914062,106.221878 193.016190,106.166832 
	C193.302841,106.012329 193.613693,105.902733 194.247269,105.766731 
z"/>
<path fill="#222" opacity="1.000000" stroke="none" 
	d="
M234.954956,104.520149 
	C234.606018,99.352890 234.390411,93.711922 233.939102,88.089867 
	C233.794266,86.285545 233.027008,84.531181 232.290497,82.470047 
	C234.564041,81.184563 235.108719,82.281189 235.059494,84.681335 
	C234.927094,91.136520 235.003403,97.596001 234.954956,104.520149 
z"/>
<path fill="#034540" opacity="1.000000" stroke="none" 
	d="
M194.883377,94.485580 
	C195.108749,97.502090 195.343979,100.974976 195.282074,104.730209 
	C194.954376,101.655693 194.923813,98.298813 194.883377,94.485580 
z"/>
<path fill="#195C58" opacity="1.000000" stroke="none" 
	d="
M172.707962,105.844681 
	C172.985992,106.074860 172.987823,106.288620 173.015732,106.821976 
	C172.489960,107.045189 171.938080,106.948814 171.386215,106.852440 
	C171.734726,106.511047 172.083237,106.169655 172.707962,105.844681 
z"/>
<path fill="#225D59" opacity="1.000000" stroke="none" 
	d="
M209.673187,91.717590 
	C209.381500,91.573936 209.166595,91.174377 208.956619,90.536667 
	C209.224365,90.686241 209.487152,91.073959 209.673187,91.717590 
z"/>
<path fill="#225D59" opacity="1.000000" stroke="none" 
	d="
M55.419357,107.049309 
	C55.443928,106.707451 55.867706,106.348534 56.566589,105.907875 
	C56.841702,105.826141 57.007774,105.978477 57.068851,106.062325 
	C57.129929,106.146172 57.072483,106.129631 57.072483,106.129631 
	C56.654510,106.430504 56.236542,106.731377 55.419357,107.049309 
z"/>
<path fill="#055450" opacity="1.000000" stroke="none" 
	d="
M57.171074,106.165710 
	C57.072483,106.129631 57.129929,106.146172 57.156570,106.133049 
	C57.183208,106.119926 57.426308,106.143013 57.513092,106.062057 
	C57.599876,105.981102 57.269661,106.201790 57.171074,106.165710 
z"/>
<path fill="#222" opacity="1.000000" stroke="none" 
	d="
M117.188065,93.250801 
	C120.795631,90.224136 122.833488,92.051186 123.516853,95.296623 
	C124.042297,97.792053 123.806190,100.605408 123.207962,103.110001 
	C122.930176,104.272987 120.947388,105.824402 119.809364,105.767326 
	C118.619629,105.707664 116.647461,104.008789 116.542229,102.883820 
	C116.257088,99.835640 116.780411,96.711838 117.188065,93.250801 
z"/>
<path fill="#222" opacity="1.000000" stroke="none" 
	d="
M178.485184,104.895340 
	C177.914291,101.220154 177.763992,97.598595 177.905182,93.705917 
	C180.120483,93.546036 183.528122,93.218102 183.713333,93.843910 
	C184.551971,96.677399 185.025055,99.889343 184.456192,102.730019 
	C184.242462,103.797371 180.849380,104.228043 178.485184,104.895340 
z"/>
</svg>